<svg width="14" height="14" viewBox="0 0 14 14" fill="none" xmlns="http://www.w3.org/2000/svg">
<path d="M13.4867 5.27333L9.05333 0.84C8.68 0.466666 8.24444 0.217777 7.74667 0.0933332C7.24889 -0.0311108 6.75111 -0.0311108 6.25333 0.0933332C5.75556 0.217777 5.32 0.466666 4.94667 0.84L0.513333 5.27333C0.171111 5.61556 0 6.03556 0 6.53333V12.2267C0 12.7244 0.171111 13.1444 0.513333 13.4867C0.855556 13.8289 1.27556 14 1.77333 14H12.2733C12.74 14 13.1444 13.8289 13.4867 13.4867C13.8289 13.1444 14 12.7244 14 12.2267V6.53333C14 6.03556 13.8289 5.61556 13.4867 5.27333ZM8.77333 12.8333H5.27333V10.5467C5.27333 10.0489 5.43667 9.62889 5.76333 9.28667C6.09 8.94444 6.50222 8.77333 7 8.77333C7.49778 8.77333 7.91778 8.94444 8.26 9.28667C8.60222 9.62889 8.77333 10.0489 8.77333 10.5467V12.8333ZM12.8333 12.2267C12.8333 12.4133 12.7789 12.5611 12.67 12.67C12.5611 12.7789 12.4289 12.8333 12.2733 12.8333H9.94V10.5467C9.90889 10.0178 9.76889 9.52778 9.52 9.07667C9.27111 8.62556 8.92111 8.26778 8.47 8.00333C8.01889 7.73889 7.52889 7.60667 7 7.60667C6.47111 7.60667 5.98111 7.73889 5.53 8.00333C5.07889 8.26778 4.72889 8.62556 4.48 9.07667C4.23111 9.52778 4.10667 10.0178 4.10667 10.5467V12.8333H1.77333C1.58667 12.8333 1.43889 12.7789 1.33 12.67C1.22111 12.5611 1.16667 12.4133 1.16667 12.2267V6.53333C1.16667 6.37778 1.22889 6.23778 1.35333 6.11333L5.74 1.68C6.08222 1.33778 6.50222 1.16667 7 1.16667C7.49778 1.16667 7.91778 1.33778 8.26 1.68L12.6467 6.11333C12.7711 6.23778 12.8333 6.37778 12.8333 6.53333V12.2267Z" fill="#101010"/>
</svg>
