<svg width="14" height="14" viewBox="0 0 14 14" fill="none" xmlns="http://www.w3.org/2000/svg">
<path d="M7 0C5.72444 0 4.55 0.311111 3.47667 0.933333C2.40333 1.55556 1.55556 2.40333 0.933333 3.47667C0.311111 4.55 0 5.72444 0 7C0 8.27556 0.311111 9.45 0.933333 10.5233C1.55556 11.5967 2.40333 12.4444 3.47667 13.0667C4.55 13.6889 5.72444 14 7 14C8.27556 14 9.45 13.6889 10.5233 13.0667C11.5967 12.4444 12.4444 11.5967 13.0667 10.5233C13.6889 9.45 14 8.27556 14 7C14 5.72444 13.6889 4.55 13.0667 3.47667C12.4444 2.40333 11.5967 1.55556 10.5233 0.933333C9.45 0.311111 8.27556 0 7 0ZM7 12.8333C5.94222 12.8333 4.97 12.5689 4.08333 12.04C3.19667 11.5111 2.48889 10.8033 1.96 9.91667C1.43111 9.03 1.16667 8.05778 1.16667 7C1.16667 5.94222 1.43111 4.97 1.96 4.08333C2.48889 3.19667 3.19667 2.48889 4.08333 1.96C4.97 1.43111 5.94222 1.16667 7 1.16667C8.05778 1.16667 9.03 1.43111 9.91667 1.96C10.8033 2.48889 11.5111 3.19667 12.04 4.08333C12.5689 4.97 12.8333 5.94222 12.8333 7C12.8333 8.05778 12.5689 9.03 12.04 9.91667C11.5111 10.8033 10.8033 11.5111 9.91667 12.04C9.03 12.5689 8.05778 12.8333 7 12.8333ZM7 5.83333H6.44C6.25333 5.83333 6.10556 5.88778 5.99667 5.99667C5.88778 6.10556 5.83333 6.24556 5.83333 6.41667C5.83333 6.58778 5.88778 6.72778 5.99667 6.83667C6.10556 6.94556 6.25333 7 6.44 7H7V10.5C7 10.6556 7.05444 10.7878 7.16333 10.8967C7.27222 11.0056 7.41222 11.06 7.58333 11.06C7.75444 11.06 7.89444 11.0056 8.00333 10.8967C8.11222 10.7878 8.16667 10.6556 8.16667 10.5V7C8.16667 6.68889 8.05 6.41667 7.81667 6.18333C7.58333 5.95 7.31111 5.83333 7 5.83333ZM6.11333 3.78C6.11333 4.02889 6.19889 4.23889 6.37 4.41C6.54111 4.58111 6.75111 4.66667 7 4.66667C7.24889 4.66667 7.45889 4.58111 7.63 4.41C7.80111 4.23889 7.88667 4.02889 7.88667 3.78C7.88667 3.53111 7.80111 3.32111 7.63 3.15C7.45889 2.97889 7.24889 2.90111 7 2.91667C6.75111 2.93222 6.54111 3.01778 6.37 3.17333C6.19889 3.32889 6.11333 3.53111 6.11333 3.78Z" fill="#F58D02"/>
</svg>
