<svg width="14" height="14" viewBox="0 0 14 14" fill="none" xmlns="http://www.w3.org/2000/svg">
<path d="M10.2241 0.840004C9.53961 0.840004 8.90961 1.01889 8.33406 1.37667C7.7585 1.73445 7.31517 2.19334 7.00406 2.75334C6.69295 2.19334 6.24961 1.73445 5.67406 1.37667C5.0985 1.01889 4.46072 0.847781 3.76072 0.863337C3.06072 0.878893 2.41517 1.08111 1.82406 1.47C1.23295 1.85889 0.774058 2.35667 0.447391 2.96334C0.120725 3.57 -0.0270531 4.23111 0.00405797 4.94667C0.00405797 6.16 0.564058 7.49778 1.68406 8.96C2.55517 10.08 3.70628 11.2467 5.13739 12.46C5.66628 12.9267 6.2885 13.16 7.00406 13.16C7.71961 13.16 8.34184 12.9267 8.87072 12.46C10.3018 11.2467 11.4529 10.08 12.3241 8.96C13.4441 7.49778 14.0041 6.16 14.0041 4.94667C14.0352 4.23111 13.8874 3.57 13.5607 2.96334C13.2341 2.35667 12.7752 1.85889 12.1841 1.47C11.5929 1.08111 10.9396 0.871115 10.2241 0.840004ZM8.12406 11.5733C7.81295 11.8533 7.43961 11.9933 7.00406 11.9933C6.5685 11.9933 6.19517 11.8533 5.88406 11.5733C4.39072 10.3289 3.23184 9.12334 2.40739 7.95667C1.58295 6.79 1.17072 5.78667 1.17072 4.94667C1.13961 4.44889 1.24072 3.98223 1.47406 3.54667C1.70739 3.11111 2.02628 2.75334 2.43072 2.47334C2.83517 2.19334 3.28628 2.05334 3.78406 2.05334C4.28184 2.05334 4.74073 2.19334 5.16072 2.47334C5.58072 2.75334 5.89961 3.11111 6.11739 3.54667C6.33517 3.98223 6.44406 4.44889 6.44406 4.94667C6.44406 5.10223 6.4985 5.24223 6.60739 5.36667C6.71628 5.49111 6.8485 5.55334 7.00406 5.55334C7.15961 5.55334 7.29184 5.49111 7.40072 5.36667C7.50961 5.24223 7.57961 5.10223 7.61072 4.94667C7.57961 4.44889 7.67295 3.98223 7.89072 3.54667C8.1085 3.11111 8.42739 2.75334 8.84739 2.47334C9.26739 2.19334 9.72628 2.05334 10.2241 2.05334C10.7218 2.05334 11.1729 2.19334 11.5774 2.47334C11.9818 2.75334 12.3007 3.11111 12.5341 3.54667C12.7674 3.98223 12.8685 4.44889 12.8374 4.94667C12.8374 5.78667 12.4252 6.79 11.6007 7.95667C10.7763 9.12334 9.61739 10.3289 8.12406 11.5733Z" fill="#101010"/>
</svg>
