<svg width="14" height="14" viewBox="0 0 14 14" fill="none" xmlns="http://www.w3.org/2000/svg">
<path d="M6.14286 7.85714H1.85715C1.61429 7.85714 1.41086 7.77486 1.24686 7.61029C1.08286 7.44571 1.00057 7.24229 1 7C0.999432 6.75771 1.08172 6.55429 1.24686 6.38971C1.412 6.22514 1.61543 6.14286 1.85715 6.14286H6.14286V1.85715C6.14286 1.61429 6.22514 1.41086 6.38971 1.24686C6.55429 1.08286 6.75771 1.00057 7 1C7.24229 0.999432 7.446 1.08172 7.61114 1.24686C7.77629 1.412 7.85829 1.61543 7.85714 1.85715V6.14286H12.1429C12.3857 6.14286 12.5894 6.22514 12.754 6.38971C12.9186 6.55429 13.0006 6.75771 13 7C12.9994 7.24229 12.9171 7.446 12.7531 7.61114C12.5891 7.77629 12.3857 7.85829 12.1429 7.85714H7.85714V12.1429C7.85714 12.3857 7.77486 12.5894 7.61029 12.754C7.44571 12.9186 7.24229 13.0006 7 13C6.75771 12.9994 6.55429 12.9171 6.38971 12.7531C6.22514 12.5891 6.14286 12.3857 6.14286 12.1429V7.85714Z" fill="#101010"/>
</svg>
