<svg width="14" height="14" viewBox="0 0 14 14" fill="none" xmlns="http://www.w3.org/2000/svg">
<path d="M11.1067 1.16667H10.5V0.559999C10.5 0.404445 10.4456 0.272223 10.3367 0.163333C10.2278 0.0544443 10.0878 0 9.91667 0C9.74556 0 9.60556 0.0544443 9.49667 0.163333C9.38778 0.272223 9.33333 0.404445 9.33333 0.559999V1.16667H4.66667V0.559999C4.66667 0.404445 4.61222 0.272223 4.50333 0.163333C4.39444 0.0544443 4.25444 0 4.08333 0C3.91222 0 3.77222 0.0544443 3.66333 0.163333C3.55444 0.272223 3.5 0.404445 3.5 0.559999V1.16667H2.94C2.41111 1.16667 1.92111 1.29889 1.47 1.56333C1.01889 1.82778 0.661111 2.18556 0.396667 2.63667C0.132222 3.08778 0 3.56222 0 4.06V11.06C0 11.5889 0.132222 12.0789 0.396667 12.53C0.661111 12.9811 1.01889 13.3389 1.47 13.6033C1.92111 13.8678 2.39556 14 2.89333 14H11.1067C11.6044 14 12.0789 13.8678 12.53 13.6033C12.9811 13.3389 13.3389 12.9811 13.6033 12.53C13.8678 12.0789 14 11.6044 14 11.1067V4.06C14 3.56222 13.8678 3.08778 13.6033 2.63667C13.3389 2.18556 12.9811 1.82778 12.53 1.56333C12.0789 1.29889 11.6044 1.16667 11.1067 1.16667ZM1.16667 4.06C1.16667 3.59333 1.33778 3.18889 1.68 2.84667C2.02222 2.50444 2.42667 2.33333 2.89333 2.33333H11.1067C11.5733 2.33333 11.9778 2.50444 12.32 2.84667C12.6622 3.18889 12.8333 3.60889 12.8333 4.10667V4.66667H1.16667V4.06ZM11.1067 12.8333H2.94C2.44222 12.8333 2.02222 12.6622 1.68 12.32C1.33778 11.9778 1.16667 11.5733 1.16667 11.1067V5.83333H12.8333V11.06C12.8333 11.5578 12.6622 11.9778 12.32 12.32C11.9778 12.6622 11.5578 12.8333 11.06 12.8333H11.1067ZM6.11333 8.72667C6.11333 8.97556 6.19889 9.18556 6.37 9.35667C6.54111 9.52778 6.75111 9.61333 7 9.61333C7.24889 9.61333 7.45889 9.52778 7.63 9.35667C7.80111 9.18556 7.88667 8.98333 7.88667 8.75C7.88667 8.51667 7.80111 8.31444 7.63 8.14333C7.45889 7.97222 7.24889 7.88667 7 7.88667C6.75111 7.88667 6.54111 7.97222 6.37 8.14333C6.19889 8.31444 6.11333 8.52444 6.11333 8.77333V8.72667ZM3.22 8.72667C3.22 8.97556 3.30556 9.18556 3.47667 9.35667C3.64778 9.52778 3.85 9.61333 4.08333 9.61333C4.31667 9.61333 4.51889 9.52778 4.69 9.35667C4.86111 9.18556 4.94667 8.98333 4.94667 8.75C4.94667 8.51667 4.86111 8.31444 4.69 8.14333C4.51889 7.97222 4.31667 7.88667 4.08333 7.88667C3.85 7.88667 3.64778 7.97222 3.47667 8.14333C3.30556 8.31444 3.22 8.52444 3.22 8.77333V8.72667ZM9.05333 8.72667C9.05333 8.97556 9.13889 9.18556 9.31 9.35667C9.48111 9.52778 9.68333 9.61333 9.91667 9.61333C10.15 9.61333 10.3522 9.52778 10.5233 9.35667C10.6944 9.18556 10.78 8.98333 10.78 8.75C10.78 8.51667 10.6944 8.31444 10.5233 8.14333C10.3522 7.97222 10.15 7.88667 9.91667 7.88667C9.68333 7.88667 9.48111 7.97222 9.31 8.14333C9.13889 8.31444 9.05333 8.52444 9.05333 8.77333V8.72667Z" fill="#101010"/>
</svg>
