<svg width="14" height="14" viewBox="0 0 14 14" fill="none" xmlns="http://www.w3.org/2000/svg">
<g clip-path="url(#clip0_286_3029)">
<path d="M0.256188 0.256375C0.420275 0.0923373 0.642794 0.000186359 0.874813 0.000186359C1.10683 0.000186359 1.32935 0.0923373 1.49344 0.256375L6.99981 5.76275L12.5062 0.256375C12.5869 0.172803 12.6835 0.106144 12.7902 0.0602858C12.897 0.0144279 13.0118 -0.00971005 13.128 -0.0107196C13.2441 -0.0117292 13.3594 0.0104098 13.4669 0.0544055C13.5744 0.0984013 13.6721 0.163373 13.7543 0.245529C13.8364 0.327685 13.9014 0.42538 13.9454 0.532915C13.9894 0.640449 14.0115 0.755669 14.0105 0.871851C14.0095 0.988032 13.9854 1.10285 13.9395 1.2096C13.8937 1.31636 13.827 1.41291 13.7434 1.49362L8.23706 7L13.7434 12.5064C13.9028 12.6714 13.991 12.8924 13.989 13.1219C13.987 13.3513 13.895 13.5707 13.7328 13.733C13.5705 13.8952 13.3511 13.9872 13.1217 13.9892C12.8922 13.9912 12.6712 13.903 12.5062 13.7436L6.99981 8.23725L1.49344 13.7436C1.32841 13.903 1.10738 13.9912 0.877962 13.9892C0.64854 13.9872 0.429079 13.8952 0.266847 13.733C0.104615 13.5707 0.012592 13.3513 0.0105984 13.1219C0.00860474 12.8924 0.0967999 12.6714 0.256188 12.5064L5.76256 7L0.256188 1.49362C0.092151 1.32954 0 1.10702 0 0.875C0 0.642981 0.092151 0.420461 0.256188 0.256375Z" fill="black"/>
</g>
<defs>
<clipPath id="clip0_286_3029">
<rect width="14" height="14" fill="white"/>
</clipPath>
</defs>
</svg>
