<svg width="12" height="12" viewBox="0 0 12 12" fill="none" xmlns="http://www.w3.org/2000/svg">
<path d="M11.4391 0.559992C11.0924 0.213326 10.6657 0.0399914 10.1591 0.0399914C9.6524 0.0399914 9.22573 0.213326 8.87906 0.559992L0.759062 8.67999C0.519062 8.91999 0.339062 9.19332 0.219062 9.49999C0.0990625 9.80666 0.0390625 10.12 0.0390625 10.44V11.48C0.0390625 11.6133 0.0857292 11.7267 0.179063 11.82C0.272396 11.9133 0.385729 11.96 0.519062 11.96H1.55906C1.87906 11.96 2.1924 11.9 2.49906 11.78C2.80573 11.66 3.07906 11.48 3.31906 11.24L11.4391 3.11999C11.7857 2.77332 11.9591 2.34666 11.9591 1.83999C11.9591 1.33333 11.7857 0.906658 11.4391 0.559992ZM2.59906 10.52C2.30573 10.8133 1.95906 10.96 1.55906 10.96H1.03906V10.44C1.03906 10.04 1.18573 9.69332 1.47906 9.39999L7.63906 3.19999L8.79906 4.35999L2.59906 10.52ZM10.7591 2.39999L9.47906 3.67999L8.31906 2.51999L9.59906 1.23999C9.75906 1.10666 9.9524 1.03999 10.1791 1.03999C10.4057 1.03999 10.5924 1.11333 10.7391 1.25999C10.8857 1.40666 10.9591 1.59332 10.9591 1.81999C10.9591 2.04666 10.8791 2.23999 10.7191 2.39999H10.7591Z" fill="#101010"/>
</svg>
