<svg width="11" height="14" viewBox="0 0 11 14" fill="none" xmlns="http://www.w3.org/2000/svg">
<path d="M5.27333 7C5.89556 7 6.47889 6.84444 7.02333 6.53333C7.56778 6.22222 7.99556 5.79444 8.30667 5.25C8.61778 4.70556 8.77333 4.12222 8.77333 3.5C8.77333 2.87778 8.61778 2.29444 8.30667 1.75C7.99556 1.20556 7.56778 0.777778 7.02333 0.466666C6.47889 0.155556 5.89556 0 5.27333 0C4.65111 0 4.06778 0.155556 3.52333 0.466666C2.97889 0.777778 2.55111 1.20556 2.24 1.75C1.92889 2.29444 1.77333 2.87778 1.77333 3.5C1.77333 4.12222 1.92889 4.70556 2.24 5.25C2.55111 5.79444 2.97889 6.22222 3.52333 6.53333C4.06778 6.84444 4.65111 7 5.27333 7ZM5.27333 1.16667C5.92667 1.16667 6.47889 1.39222 6.93 1.84333C7.38111 2.29444 7.60667 2.84667 7.60667 3.5C7.60667 4.15333 7.38111 4.70556 6.93 5.15667C6.47889 5.60778 5.92667 5.83333 5.27333 5.83333C4.62 5.83333 4.06778 5.60778 3.61667 5.15667C3.16556 4.70556 2.94 4.15333 2.94 3.5C2.94 2.84667 3.16556 2.29444 3.61667 1.84333C4.06778 1.39222 4.62 1.16667 5.27333 1.16667ZM5.27333 8.16667C4.30889 8.16667 3.43 8.4 2.63667 8.86667C1.84333 9.33333 1.21333 9.97111 0.746667 10.78C0.28 11.5889 0.0311111 12.4756 0 13.44C0.0311111 13.5956 0.101111 13.7278 0.21 13.8367C0.318889 13.9456 0.451111 14 0.606667 14C0.762222 14 0.894444 13.9456 1.00333 13.8367C1.11222 13.7278 1.16667 13.5956 1.16667 13.44C1.19778 12.6933 1.39222 12.0089 1.75 11.3867C2.10778 10.7644 2.59778 10.2667 3.22 9.89333C3.84222 9.52 4.52667 9.33333 5.27333 9.33333C6.02 9.33333 6.70444 9.52 7.32667 9.89333C7.94889 10.2667 8.44667 10.7644 8.82 11.3867C9.19333 12.0089 9.38 12.6933 9.38 13.44C9.38 13.5956 9.43444 13.7278 9.54333 13.8367C9.65222 13.9456 9.78444 14 9.94 14C10.0956 14 10.2356 13.9456 10.36 13.8367C10.4844 13.7278 10.5467 13.5956 10.5467 13.44C10.5156 12.4756 10.2667 11.5889 9.8 10.78C9.33333 9.97111 8.70333 9.33333 7.91 8.86667C7.11667 8.4 6.23778 8.16667 5.27333 8.16667Z" fill="#101010"/>
</svg>
