<svg width="14" height="14" viewBox="0 0 14 14" fill="none" xmlns="http://www.w3.org/2000/svg">
<path d="M13.8675 13.0275L10.3675 9.52753C11.0209 8.74975 11.4331 7.86309 11.6042 6.86753C11.7753 5.87197 11.6975 4.89975 11.3709 3.95086C11.0442 3.00197 10.5075 2.18531 9.76086 1.50086C9.01419 0.816419 8.15086 0.365308 7.17086 0.147531C6.19086 -0.0702477 5.21864 -0.0469141 4.25419 0.21753C3.28975 0.481975 2.44197 0.979753 1.71086 1.71086C0.979749 2.44197 0.481971 3.28975 0.217527 4.2542C-0.0469176 5.21864 -0.0702509 6.19086 0.147527 7.17086C0.365305 8.15086 0.816416 9.0142 1.50086 9.76086C2.1853 10.5075 3.00197 11.0442 3.95086 11.3709C4.89975 11.6975 5.87197 11.7753 6.86753 11.6042C7.86308 11.4331 8.74975 11.0209 9.52753 10.3675L13.0275 13.8675C13.152 13.9609 13.292 14.0075 13.4475 14.0075C13.6031 14.0075 13.7353 13.9531 13.8442 13.8442C13.9531 13.7353 14.0075 13.6031 14.0075 13.4475C14.0075 13.292 13.9609 13.152 13.8675 13.0275ZM5.84086 10.5075C5.00086 10.5075 4.22308 10.2975 3.50753 9.87753C2.79197 9.45753 2.22419 8.88975 1.80419 8.1742C1.38419 7.45864 1.17419 6.68086 1.17419 5.84086C1.17419 5.00086 1.38419 4.22309 1.80419 3.50753C2.22419 2.79198 2.79197 2.2242 3.50753 1.8042C4.22308 1.3842 5.00086 1.1742 5.84086 1.1742C6.68086 1.1742 7.45864 1.3842 8.17419 1.8042C8.88975 2.2242 9.45753 2.79198 9.87753 3.50753C10.2975 4.22309 10.5075 5.00086 10.5075 5.84086C10.5075 6.68086 10.2975 7.45864 9.87753 8.1742C9.45753 8.88975 8.88975 9.45753 8.17419 9.87753C7.45864 10.2975 6.68086 10.5075 5.84086 10.5075Z" fill="#393F4D"/>
</svg>
