<svg width="14" height="14" viewBox="0 0 14 14" fill="none" xmlns="http://www.w3.org/2000/svg">
<path d="M6.99915 4.66667C6.34582 4.66667 5.79359 4.89222 5.34248 5.34333C4.89137 5.79444 4.66582 6.34667 4.66582 7C4.66582 7.65333 4.89137 8.20556 5.34248 8.65667C5.79359 9.10778 6.34582 9.33333 6.99915 9.33333C7.65248 9.33333 8.2047 9.10778 8.65582 8.65667C9.10693 8.20556 9.33248 7.65333 9.33248 7C9.33248 6.34667 9.10693 5.79444 8.65582 5.34333C8.2047 4.89222 7.65248 4.66667 6.99915 4.66667ZM6.99915 8.16667C6.68804 8.16667 6.41582 8.05 6.18248 7.81667C5.94915 7.58333 5.83248 7.31111 5.83248 7C5.83248 6.68889 5.94915 6.41667 6.18248 6.18333C6.41582 5.95 6.68804 5.83333 6.99915 5.83333C7.31026 5.83333 7.58248 5.95 7.81582 6.18333C8.04915 6.41667 8.16582 6.68889 8.16582 7C8.16582 7.31111 8.04915 7.58333 7.81582 7.81667C7.58248 8.05 7.31026 8.16667 6.99915 8.16667ZM12.4125 8.12L12.1791 7.98C12.2725 7.32667 12.2725 6.67333 12.1791 6.02L12.4125 5.88C12.848 5.63111 13.128 5.27333 13.2525 4.80667C13.3769 4.34 13.3147 3.90444 13.0658 3.5C12.8169 3.09556 12.4591 2.82333 11.9925 2.68333C11.5258 2.54333 11.0903 2.59778 10.6858 2.84667L10.4058 2.98667C9.90804 2.58222 9.36359 2.27111 8.77248 2.05333V1.72667C8.77248 1.26 8.60137 0.855556 8.25915 0.513333C7.91693 0.171111 7.49693 0 6.99915 0C6.50137 0 6.08915 0.171111 5.76248 0.513333C5.43582 0.855556 5.27248 1.27556 5.27248 1.77333V2.05333C4.65026 2.27111 4.09026 2.58222 3.59248 2.98667L3.31248 2.84667C2.90804 2.59778 2.47248 2.54333 2.00582 2.68333C1.53915 2.82333 1.18137 3.09556 0.932483 3.5C0.683594 3.90444 0.621372 4.34 0.745816 4.80667C0.87026 5.27333 1.15026 5.63111 1.58582 5.88L1.81915 6.02C1.72582 6.67333 1.72582 7.32667 1.81915 7.98L1.58582 8.12C1.15026 8.36889 0.87026 8.72667 0.745816 9.19333C0.621372 9.66 0.683594 10.0956 0.932483 10.5C1.18137 10.9044 1.53915 11.1767 2.00582 11.3167C2.47248 11.4567 2.90804 11.4022 3.31248 11.1533L3.59248 11.0133C4.09026 11.4178 4.65026 11.7289 5.27248 11.9467V12.2267C5.27248 12.7244 5.43582 13.1444 5.76248 13.4867C6.08915 13.8289 6.50137 14 6.99915 14C7.49693 14 7.91693 13.8289 8.25915 13.4867C8.60137 13.1444 8.77248 12.74 8.77248 12.2733V11.9467C9.36359 11.7289 9.90804 11.4178 10.4058 11.0133L10.6858 11.1533C11.0903 11.4022 11.5258 11.4567 11.9925 11.3167C12.4591 11.1767 12.8169 10.9044 13.0658 10.5C13.3147 10.0956 13.3769 9.66 13.2525 9.19333C13.128 8.72667 12.848 8.36889 12.4125 8.12ZM10.9191 5.92667C11.1369 6.64222 11.1369 7.35778 10.9191 8.07333C10.888 8.22889 10.8958 8.36111 10.9425 8.47C10.9891 8.57889 11.0747 8.68 11.1991 8.77333L11.8525 9.1C11.9769 9.19333 12.0625 9.31778 12.1091 9.47333C12.1558 9.62889 12.1403 9.77667 12.0625 9.91667C11.9847 10.0567 11.868 10.15 11.7125 10.1967C11.5569 10.2433 11.4014 10.22 11.2458 10.1267L10.6391 9.75333C10.5147 9.69111 10.3825 9.66778 10.2425 9.68333C10.1025 9.69889 9.98582 9.75333 9.89248 9.84667C9.36359 10.4067 8.74137 10.78 8.02582 10.9667C7.90137 10.9978 7.79248 11.0678 7.69915 11.1767C7.60582 11.2856 7.55915 11.4022 7.55915 11.5267V12.2267C7.55915 12.4133 7.5047 12.5611 7.39582 12.67C7.28693 12.7789 7.1547 12.8333 6.99915 12.8333C6.84359 12.8333 6.70359 12.7789 6.57915 12.67C6.45471 12.5611 6.39248 12.4133 6.39248 12.2267V11.5267C6.39248 11.4022 6.35359 11.2856 6.27582 11.1767C6.19804 11.0678 6.09693 10.9978 5.97248 10.9667C5.25693 10.78 4.63471 10.4067 4.10582 9.84667C4.01248 9.75333 3.89582 9.69889 3.75582 9.68333C3.61582 9.66778 3.48359 9.69111 3.35915 9.75333L2.75248 10.1267C2.56582 10.2511 2.37137 10.2511 2.16915 10.1267C1.96693 10.0022 1.86582 9.83111 1.86582 9.61333C1.86582 9.39556 1.95915 9.22444 2.14582 9.1L2.79915 8.77333C2.92359 8.68 3.00915 8.57889 3.05582 8.47C3.10248 8.36111 3.11026 8.22889 3.07915 8.07333C2.86137 7.35778 2.86137 6.64222 3.07915 5.92667C3.11026 5.77111 3.10248 5.63889 3.05582 5.53C3.00915 5.42111 2.92359 5.32 2.79915 5.22667L2.14582 4.9C1.95915 4.77556 1.86582 4.60444 1.86582 4.38667C1.86582 4.16889 1.96693 3.99778 2.16915 3.87333C2.37137 3.74889 2.56582 3.74889 2.75248 3.87333L3.35915 4.24667C3.48359 4.30889 3.61582 4.33222 3.75582 4.31667C3.89582 4.30111 4.01248 4.24667 4.10582 4.15333C4.63471 3.59333 5.25693 3.22 5.97248 3.03333C6.09693 3.00222 6.20582 2.93222 6.29915 2.82333C6.39248 2.71444 6.43915 2.59778 6.43915 2.47333V1.72667C6.43915 1.57111 6.49359 1.43889 6.60248 1.33C6.71137 1.22111 6.84359 1.16667 6.99915 1.16667C7.1547 1.16667 7.2947 1.22111 7.41915 1.33C7.54359 1.43889 7.60582 1.57111 7.60582 1.72667V2.47333C7.5747 2.59778 7.60582 2.71444 7.69915 2.82333C7.79248 2.93222 7.90137 3.00222 8.02582 3.03333C8.74137 3.22 9.36359 3.59333 9.89248 4.15333C9.98582 4.24667 10.1025 4.30111 10.2425 4.31667C10.3825 4.33222 10.5147 4.30889 10.6391 4.24667L11.2458 3.87333C11.4325 3.74889 11.6269 3.74889 11.8291 3.87333C12.0314 3.99778 12.1325 4.16889 12.1325 4.38667C12.1325 4.60444 12.0391 4.77556 11.8525 4.9L11.1991 5.22667C11.0747 5.32 10.9891 5.42111 10.9425 5.53C10.8958 5.63889 10.888 5.77111 10.9191 5.92667Z" fill="#101010"/>
</svg>
